# Blender v2.93.2 OBJ File: ''
# www.blender.org
mtllib enemy6.mtl
o Cone
v -1.000000 -0.000000 -1.000000
v -1.000000 -0.866026 -0.500000
v -1.000000 -0.866025 0.500000
v -1.000000 0.000000 1.000000
v -1.000000 0.866025 0.500000
v -1.000000 0.866025 -0.500000
v 1.000000 0.000000 0.000000
v -1.000000 -0.362169 -0.627294
v -0.000000 -0.156541 -0.314738
v 0.000000 -0.350842 -0.021800
v -1.000000 -0.724337 0.000000
v 0.000000 -0.194301 0.292938
v -1.000000 -0.362168 0.627294
v -0.000000 0.156541 0.314738
v -1.000000 0.362168 0.627294
v -0.000000 0.350842 0.021800
v -1.000000 0.724337 -0.000000
v -0.000000 0.194301 -0.292938
v -1.000000 0.362168 -0.627294
v -1.000000 -0.000000 -0.500000
v -1.000000 -0.433013 0.250000
v -1.000000 -0.000000 -0.000000
v -1.000000 -0.614097 -0.563647
v -0.500000 -0.608434 -0.260900
v -1.000000 0.614097 0.563647
v -0.500000 0.608434 0.260900
v 0.554977 0.356505 0.324547
v 0.554977 -0.356505 -0.324547
vt 0.250000 0.490000
vt 0.250000 0.370000
vt 0.353923 0.430000
vt 0.457846 0.130000
vt 0.353923 0.190000
vt 0.353923 0.070000
vt 0.250000 0.010000
vt 0.250000 0.130000
vt 0.146077 0.070000
vt 0.542154 0.130000
vt 0.542154 0.250000
vt 0.750000 0.250000
vt 0.042154 0.370000
vt 0.146077 0.310000
vt 0.146077 0.430000
vt 0.542154 0.370000
vt 0.646077 0.430000
vt 0.750000 0.370000
vt 0.957846 0.370000
vt 0.957846 0.250000
vt 0.853923 0.190000
vt 0.750000 0.010000
vt 0.646077 0.070000
vt 0.594115 0.100000
vt 0.853923 0.070000
vt 0.957846 0.130000
vt 0.905885 0.400000
vt 0.853923 0.430000
vt 0.750000 0.490000
vt 0.250000 0.250000
vt 0.146077 0.190000
vt 0.146077 0.130000
vt 0.353923 0.310000
vt 0.353923 0.370000
vt 0.405885 0.400000
vt 0.405885 0.340000
vt 0.457846 0.370000
vt 0.094115 0.100000
vt 0.094115 0.160000
vt 0.042154 0.130000
vt 0.457846 0.250000
vt 0.042154 0.250000
vn 0.3431 -0.6736 -0.6546
vn 0.3431 -0.2301 0.9107
vn 0.3431 0.6736 0.6546
vn -1.0000 0.0000 -0.0000
vn 0.3431 0.2301 -0.9107
vn 0.2912 0.0593 -0.9548
vn -0.0000 -0.9998 0.0187
vn 0.2912 0.7972 0.5288
vn 0.2912 -0.8566 0.4260
vn 0.0000 0.9998 -0.0187
vn 0.5080 -0.2110 -0.8351
vn 0.2022 -0.9268 -0.3166
vn 0.5080 0.2110 0.8351
vn 0.2022 0.9268 0.3166
vn 0.3254 0.7880 0.5227
vn 0.3254 -0.7880 -0.5227
vn 0.3431 -0.9037 0.2561
vn 0.3431 0.9037 -0.2561
vn 0.3254 0.0586 -0.9438
vn 0.3254 0.8466 -0.4211
vn 0.1863 0.2407 0.9526
vn 0.3254 -0.0586 0.9438
vn 0.3254 -0.8466 0.4211
vn 0.1863 -0.2407 -0.9526
vn 0.2334 -0.8651 0.4440
vn 0.2334 0.8651 -0.4440
vn 0.5080 0.6177 -0.6003
vn 0.5080 0.8287 0.2348
vn 0.2912 0.8566 -0.4260
vn 0.5080 -0.6177 0.6003
vn 0.2912 -0.0593 0.9548
vn 0.5080 -0.8287 -0.2348
vn 0.2912 -0.7972 -0.5288
usemtl Material.010
s off
f 1/1/1 9/2/1 8/3/1
f 3/4/2 12/5/2 13/6/2
f 4/7/3 14/8/3 15/9/3
f 5/10/4 17/11/4 22/12/4
f 6/13/5 18/14/5 19/15/5
f 6/16/4 19/17/4 20/18/4
f 2/19/4 11/20/4 21/21/4
f 4/22/4 15/23/4 21/21/4
f 21/21/4 22/12/4 2/19/4
f 21/21/4 15/23/4 22/12/4
f 25/24/4 22/12/4 15/23/4
f 21/21/4 13/25/4 4/22/4
f 21/21/4 11/20/4 13/25/4
f 11/20/4 3/26/4 13/25/4
f 20/18/4 23/27/4 2/19/4
f 20/18/4 19/17/4 8/28/4
f 19/17/4 1/29/4 8/28/4
f 18/14/6 7/30/6 9/2/6
f 22/12/4 20/18/4 2/19/4
f 22/12/4 17/11/4 20/18/4
f 17/11/4 6/16/4 20/18/4
f 15/9/7 16/31/7 27/32/7
f 14/8/8 7/30/8 16/31/8
f 10/33/9 7/30/9 12/5/9
f 8/3/10 10/33/10 28/34/10
f 23/35/11 24/36/11 2/37/11
f 23/35/12 28/34/12 24/36/12
f 25/38/13 26/39/13 5/40/13
f 25/38/14 27/32/14 26/39/14
f 25/24/4 5/10/4 22/12/4
f 20/18/4 8/28/4 23/27/4
f 15/9/15 14/8/15 16/31/15
f 8/3/16 9/2/16 10/33/16
usemtl Material.011
f 24/36/17 11/41/17 2/37/17
f 26/39/18 17/42/18 5/40/18
f 19/15/19 18/14/19 9/2/19
f 17/42/20 16/31/20 18/14/20
f 15/9/21 27/32/21 25/38/21
f 13/6/22 12/5/22 14/8/22
f 11/41/23 10/33/23 12/5/23
f 8/3/24 28/34/24 23/35/24
f 28/34/25 10/33/25 24/36/25
f 27/32/26 16/31/26 26/39/26
f 24/36/17 10/33/17 11/41/17
f 26/39/18 16/31/18 17/42/18
usemtl Material.012
f 19/15/27 9/2/27 1/1/27
f 17/42/28 18/14/28 6/13/28
f 16/31/29 7/30/29 18/14/29
f 13/6/30 14/8/30 4/7/30
f 12/5/31 7/30/31 14/8/31
f 11/41/32 12/5/32 3/4/32
f 9/2/33 7/30/33 10/33/33
