# Blender v2.93.2 OBJ File: ''
# www.blender.org
mtllib enemy5.mtl
o Cylinder_Cylinder.001
v 0.000000 -1.000000 -1.000000
v 0.000000 0.587833 -1.000000
v 0.707107 -0.295202 -0.707107
v 0.707107 0.840636 -0.707107
v 1.000000 -1.000000 0.000000
v 1.000000 1.000000 0.000000
v 0.707107 -0.295202 0.707107
v 0.707107 0.840636 0.707107
v -0.000000 -1.000000 1.000000
v -0.000000 0.587833 1.000000
v -0.707107 -1.000000 0.707107
v -0.707107 0.840636 0.707107
v -1.000000 -1.000000 -0.000000
v -1.000000 1.000000 -0.000000
v -0.707107 -1.000000 -0.707107
v -0.707107 0.840636 -0.707107
v 0.707107 0.272717 -0.707107
v 0.853553 -0.647601 -0.353553
v 0.853553 0.591011 -0.353553
v 1.311046 0.000000 0.000000
v 0.853553 -0.647601 0.353553
v 0.853553 0.684468 0.353553
v 0.707107 0.272717 0.707107
v 0.853553 -0.079682 -0.353553
v 0.853553 0.352399 0.353553
v -1.000000 0.200000 0.917394
v -1.000000 -0.200000 0.917394
v -1.000000 0.200000 1.317394
v -1.000000 -0.200000 1.317394
v 1.000000 0.053277 1.064117
v 1.000000 -0.053277 1.064117
v 1.000000 0.053277 1.170670
v 1.000000 -0.053277 1.170670
v -1.000000 0.200000 -1.329385
v -1.000000 -0.200000 -1.329385
v -1.000000 0.200000 -0.929385
v -1.000000 -0.200000 -0.929385
v 1.000000 0.053277 -1.182661
v 1.000000 -0.053277 -1.182661
v 1.000000 0.053277 -1.076108
v 1.000000 -0.053277 -1.076108
vt 1.000000 1.000000
vt 0.875000 0.500000
vt 1.000000 0.500000
vt 0.750000 1.000000
vt 0.687500 0.750000
vt 0.750000 0.750000
vt 0.625000 1.000000
vt 0.500000 0.500000
vt 0.625000 0.500000
vt 0.625000 0.750000
vt 0.500000 1.000000
vt 0.375000 0.500000
vt 0.375000 1.000000
vt 0.250000 0.500000
vt 0.490000 0.250000
vt 0.250000 0.490000
vt 0.010000 0.250000
vt 0.250000 1.000000
vt 0.125000 0.500000
vt 0.125000 1.000000
vt 0.000000 0.500000
vt 0.919706 0.080294
vt 0.580294 0.080294
vt 0.580294 0.419706
vt 0.875000 1.000000
vt 0.875000 0.750000
vt 0.812500 1.000000
vt 0.812500 0.750000
vt 0.454853 0.334853
vt 0.419706 0.419706
vt 0.080294 0.419706
vt 0.080294 0.080294
vt 0.250000 0.010000
vt 0.419706 0.080294
vt 0.454853 0.165147
vt 0.000000 1.000000
vt 0.954853 0.334853
vt 0.990000 0.250000
vt 0.954853 0.165147
vt 0.510000 0.250000
vt 0.919706 0.419706
vt 0.687500 1.000000
vt 0.750000 0.500000
vt 0.687500 0.500000
vt 0.812500 0.500000
vt 0.625000 0.000000
vt 0.375000 0.250000
vt 0.375000 0.000000
vt 0.625000 0.250000
vt 0.375000 0.500000
vt 0.625000 0.750000
vt 0.375000 1.000000
vt 0.375000 0.750000
vt 0.125000 0.750000
vt 0.125000 0.500000
vt 0.875000 0.500000
vt 0.625000 0.500000
vt 0.625000 1.000000
vt 0.875000 0.750000
vt 0.625000 0.000000
vt 0.375000 0.250000
vt 0.375000 0.000000
vt 0.625000 0.250000
vt 0.375000 0.500000
vt 0.625000 0.750000
vt 0.375000 1.000000
vt 0.375000 0.750000
vt 0.125000 0.750000
vt 0.125000 0.500000
vt 0.875000 0.500000
vt 0.625000 0.500000
vt 0.625000 1.000000
vt 0.875000 0.750000
vt 0.750000 0.490000
vt 0.750000 0.010000
vn 0.3827 0.0000 -0.9239
vn 0.6959 0.2165 0.6847
vn 0.3827 0.0000 0.9239
vn -0.3827 0.0000 0.9239
vn -0.9239 0.0000 0.3827
vn 0.0000 0.9245 -0.3811
vn -0.9239 0.0000 -0.3827
vn -0.3827 0.0000 -0.9239
vn 0.4460 -0.8950 0.0000
vn 0.9239 0.0000 -0.3827
vn 0.2253 0.9263 -0.3021
vn 0.3026 0.9490 -0.0885
vn 0.3026 0.9490 0.0885
vn -0.1152 0.8725 0.4749
vn 0.1130 0.9582 0.2628
vn -0.9234 -0.3838 0.0000
vn 0.0000 -1.0000 0.0000
vn 0.9239 0.0000 0.3827
vn 0.6208 -0.1931 -0.7598
vn 0.6115 0.0000 -0.7913
vn 0.6115 -0.0000 0.7913
vn -1.0000 0.0000 0.0000
vn 0.0732 0.0000 0.9973
vn 0.0732 0.0000 -0.9973
vn 0.0732 0.9973 0.0000
vn 0.0732 -0.9973 0.0000
vn 0.3035 -0.6090 0.7328
vn 0.3035 -0.6090 -0.7328
vn 0.7679 0.2389 -0.5944
vn 0.7854 -0.2443 0.5688
vn 1.0000 0.0000 0.0000
usemtl Material.006
s off
f 2/1/1 3/2/1 1/3/1
f 6/4/2 25/5/2 20/6/2
f 8/7/3 9/8/3 7/9/3 23/10/3
f 10/11/4 11/12/4 9/8/4
f 12/13/5 13/14/5 11/12/5
f 6/15/6 2/16/6 14/17/6
f 14/18/7 15/19/7 13/14/7
f 16/20/8 1/21/8 15/19/8
f 7/22/9 11/23/9 15/24/9
f 2/1/1 4/25/1 17/26/1 3/2/1
f 4/25/10 19/27/10 24/28/10
f 8/7/3 10/11/3 9/8/3
f 10/11/4 12/13/4 11/12/4
f 12/13/5 14/18/5 13/14/5
f 6/15/11 19/29/11 4/30/11 2/16/11
f 2/16/12 16/31/12 14/17/12
f 14/17/13 12/32/13 10/33/13
f 10/33/14 8/34/14 14/17/14
f 8/34/15 22/35/15 6/15/15 14/17/15
f 14/18/7 16/20/7 15/19/7
f 16/20/8 2/36/8 1/21/8
f 18/37/16 5/38/16 21/39/16
f 11/23/17 13/40/17 15/24/17
f 15/24/9 3/41/9 7/22/9
f 3/41/16 18/37/16 21/39/16 7/22/16
f 22/42/18 8/7/18 23/10/18
f 24/28/19 20/6/19 5/43/19
f 24/28/20 19/27/20 20/6/20
f 20/6/21 25/5/21 21/44/21
f 25/5/18 7/9/18 21/44/18
f 17/26/10 18/45/10 3/2/10
usemtl Material.007
f 4/25/10 24/28/10 17/26/10
f 6/4/18 22/42/18 25/5/18
f 25/5/18 23/10/18 7/9/18
f 25/5/18 22/42/18 23/10/18
f 17/26/10 24/28/10 18/45/10
f 24/28/10 5/43/10 18/45/10
f 27/46/22 28/47/22 26/48/22
f 29/49/23 32/50/23 28/47/23
f 31/51/24 26/52/24 30/53/24
f 32/50/25 26/54/25 28/55/25
f 29/56/26 31/51/26 33/57/26
f 27/46/22 29/49/22 28/47/22
f 29/49/23 33/57/23 32/50/23
f 31/51/24 27/58/24 26/52/24
f 32/50/25 30/53/25 26/54/25
f 29/56/26 27/59/26 31/51/26
f 35/60/22 36/61/22 34/62/22
f 37/63/23 40/64/23 36/61/23
f 39/65/24 34/66/24 38/67/24
f 40/64/25 34/68/25 36/69/25
f 37/70/26 39/65/26 41/71/26
f 35/60/22 37/63/22 36/61/22
f 37/63/23 41/71/23 40/64/23
f 39/65/24 35/72/24 34/66/24
f 40/64/25 38/67/25 34/68/25
f 37/70/26 35/73/26 39/65/26
usemtl Material.009
f 15/24/27 1/74/27 3/41/27
f 7/22/28 9/75/28 11/23/28
f 19/27/29 6/4/29 20/6/29
f 20/6/30 21/44/30 5/43/30
f 33/57/31 30/53/31 32/50/31
f 33/57/31 31/51/31 30/53/31
f 41/71/31 38/67/31 40/64/31
f 41/71/31 39/65/31 38/67/31
