# Blender v2.93.2 OBJ File: ''
# www.blender.org
mtllib enemy5.mtl
o Cylinder_Cylinder.001
v 0.000000 0.587833 -0.840019
v 0.707107 -0.295202 -0.707107
v 0.000000 0.125293 -1.000000
v 1.000000 1.000000 0.000000
v 0.853553 0.352399 0.353553
v 1.311046 0.000000 0.000000
v 0.707107 0.840636 0.707107
v 0.000000 0.125293 1.000000
v 0.707107 -0.295202 0.707107
v 0.707107 0.272717 0.707107
v 0.000000 0.587833 0.840019
v -0.707107 0.125293 0.707107
v -0.707107 0.840636 0.707107
v -1.000000 0.125293 -0.000000
v -1.000000 1.000000 0.000000
v -0.707107 0.125293 -0.707107
v -0.707107 0.840636 -0.707107
v 0.707107 0.840636 -0.707107
v 0.707107 0.272717 -0.707107
v 0.853553 0.591011 -0.353553
v 0.853553 -0.079682 -0.353553
v 0.853553 0.684468 0.353553
v 0.853553 -0.647601 -0.353553
v 1.000000 -0.527868 -0.000000
v 0.853553 -0.647601 0.353553
v -1.000000 -0.200000 0.917394
v -1.000000 0.200000 1.317394
v -1.000000 0.200000 0.917394
v -1.000000 -0.200000 1.317394
v 1.000000 0.053277 1.170670
v 1.000000 -0.053277 1.064117
v 1.000000 0.053277 1.064117
v 1.000000 -0.053277 1.170670
v -1.000000 -0.200000 -1.329385
v -1.000000 0.200000 -0.929385
v -1.000000 0.200000 -1.329385
v -1.000000 -0.200000 -0.929385
v 1.000000 0.053277 -1.076108
v 1.000000 -0.053277 -1.182661
v 1.000000 0.053277 -1.182661
v 1.000000 -0.053277 -1.076108
vt 1.000000 1.000000
vt 0.875000 0.500000
vt 1.000000 0.500000
vt 0.750000 1.000000
vt 0.687500 0.750000
vt 0.750000 0.750000
vt 0.500000 0.500000
vt 0.625000 0.750000
vt 0.625000 1.000000
vt 0.500000 1.000000
vt 0.375000 0.500000
vt 0.375000 1.000000
vt 0.250000 0.500000
vt 0.250000 1.000000
vt 0.125000 0.500000
vt 0.125000 1.000000
vt 0.000000 0.500000
vt 0.919706 0.080294
vt 0.580294 0.080294
vt 0.580294 0.419706
vt 0.875000 0.750000
vt 0.875000 1.000000
vt 0.812500 1.000000
vt 0.812500 0.750000
vt 0.250000 0.490000
vt 0.080294 0.419706
vt 0.010000 0.250000
vt 0.080294 0.080294
vt 0.250000 0.010000
vt 0.419706 0.080294
vt 0.454853 0.165147
vt 0.000000 1.000000
vt 0.954853 0.334853
vt 0.990000 0.250000
vt 0.954853 0.165147
vt 0.510000 0.250000
vt 0.919706 0.419706
vt 0.687500 1.000000
vt 0.750000 0.500000
vt 0.687500 0.500000
vt 0.625000 0.500000
vt 0.812500 0.500000
vt 0.490000 0.250000
vt 0.625000 0.000000
vt 0.375000 0.250000
vt 0.375000 0.000000
vt 0.625000 0.250000
vt 0.375000 0.500000
vt 0.625000 0.750000
vt 0.375000 1.000000
vt 0.375000 0.750000
vt 0.125000 0.750000
vt 0.125000 0.500000
vt 0.875000 0.500000
vt 0.625000 0.500000
vt 0.625000 1.000000
vt 0.875000 0.750000
vt 0.625000 0.000000
vt 0.375000 0.250000
vt 0.375000 0.000000
vt 0.625000 0.250000
vt 0.375000 0.500000
vt 0.625000 0.750000
vt 0.375000 1.000000
vt 0.375000 0.750000
vt 0.125000 0.750000
vt 0.125000 0.500000
vt 0.875000 0.500000
vt 0.625000 0.500000
vt 0.625000 1.000000
vt 0.875000 0.750000
vt 0.750000 0.490000
vt 0.750000 0.010000
vn 0.3827 0.0000 -0.9239
vn 0.6959 0.2165 0.6847
vn 0.3827 -0.0000 0.9239
vn -0.3827 -0.0000 0.9239
vn -0.9239 -0.0000 0.3827
vn -0.9239 0.0000 -0.3827
vn -0.3827 -0.0000 -0.9239
vn -0.2850 -0.9585 -0.0000
vn 0.9239 0.0000 -0.3827
vn 0.3026 0.9490 -0.0885
vn 0.3026 0.9490 0.0885
vn -0.1152 0.8725 0.4749
vn 0.1130 0.9582 0.2626
vn 0.1130 0.9582 0.2628
vn 0.1130 0.9582 0.2627
vn -0.8215 -0.5702 -0.0000
vn 0.6330 -0.7742 0.0000
vn 0.0000 -1.0000 -0.0000
vn -0.9234 -0.3838 -0.0000
vn 0.9239 -0.0000 0.3827
vn 0.6091 -0.3589 -0.7073
vn 0.6115 0.0000 -0.7913
vn 0.6115 -0.0000 0.7913
vn 0.0088 0.9132 -0.4075
vn 0.0000 0.6540 -0.7565
vn 0.1613 0.9530 -0.2565
vn 0.1643 0.9702 0.1780
vn -0.0922 0.8622 -0.4981
vn -1.0000 0.0000 0.0000
vn 0.0732 0.0000 0.9973
vn 0.0732 0.0000 -0.9973
vn 0.0732 0.9973 0.0000
vn 0.0732 -0.9973 -0.0000
vn -0.2348 -0.7897 -0.5668
vn -0.2348 -0.7897 0.5668
vn 0.7679 0.2389 -0.5944
vn 0.8472 -0.4992 0.1819
vn 1.0000 0.0000 0.0000
usemtl Material.006
s 1
f 1/1/1 2/2/1 3/3/1
f 4/4/2 5/5/2 6/6/2
f 8/7/3 10/8/3 7/9/3
f 11/10/4 12/11/4 8/7/4
f 13/12/5 14/13/5 12/11/5
f 15/14/6 16/15/6 14/13/6
f 17/16/7 3/17/7 16/15/7
f 9/18/8 12/19/8 16/20/8
f 1/1/1 19/21/1 2/2/1
f 18/22/9 20/23/9 21/24/9
f 7/9/3 11/10/3 8/7/3
f 11/10/4 13/12/4 12/11/4
f 13/12/5 15/14/5 14/13/5
f 1/25/10 17/26/10 15/27/10
f 15/27/11 13/28/11 11/29/11
f 11/29/12 7/30/12 15/27/12
f 22/31/13 15/27/14 7/30/15
f 15/14/6 17/16/6 16/15/6
f 17/16/7 1/32/7 3/17/7
f 23/33/16 24/34/17 25/35/16
f 12/19/18 14/36/18 16/20/18
f 16/20/8 2/37/8 9/18/8
f 23/33/16 9/18/19 2/37/19
f 22/38/20 7/9/20 10/8/20
f 21/24/21 6/6/21 24/39/21
f 21/24/22 20/23/22 6/6/22
f 6/6/23 5/5/23 25/40/23
f 5/5/20 9/41/20 25/40/20
f 19/21/9 23/42/9 2/2/9
f 22/31/13 4/43/14 15/27/14
f 8/7/3 9/41/3 10/8/3
f 1/1/1 18/22/1 19/21/1
f 23/33/16 25/35/16 9/18/19
f 15/27/24 4/4/25 20/23/26
f 20/23/26 18/22/27 15/27/24
f 15/27/24 18/22/27 1/1/28
usemtl Material.007
f 18/22/9 21/24/9 19/21/9
f 4/4/20 22/38/20 5/5/20
f 5/5/20 10/8/20 9/41/20
f 5/5/20 22/38/20 10/8/20
f 19/21/9 21/24/9 23/42/9
f 21/24/9 24/39/9 23/42/9
f 26/44/29 27/45/29 28/46/29
f 29/47/30 30/48/30 27/45/30
f 31/49/31 28/50/31 32/51/31
f 30/48/32 28/52/32 27/53/32
f 29/54/33 31/49/33 33/55/33
f 26/44/29 29/47/29 27/45/29
f 29/47/30 33/55/30 30/48/30
f 31/49/31 26/56/31 28/50/31
f 30/48/32 32/51/32 28/52/32
f 29/54/33 26/57/33 31/49/33
f 34/58/29 35/59/29 36/60/29
f 37/61/30 38/62/30 35/59/30
f 39/63/31 36/64/31 40/65/31
f 38/62/32 36/66/32 35/67/32
f 37/68/33 39/63/33 41/69/33
f 34/58/29 37/61/29 35/59/29
f 37/61/30 41/69/30 38/62/30
f 39/63/31 34/70/31 36/64/31
f 38/62/32 40/65/32 36/66/32
f 37/68/33 34/71/33 39/63/33
usemtl Material.009
f 16/20/34 3/72/34 2/37/34
f 9/18/35 8/73/35 12/19/35
f 20/23/36 4/4/36 6/6/36
f 6/6/37 25/40/37 24/39/37
f 33/55/38 32/51/38 30/48/38
f 33/55/38 31/49/38 32/51/38
f 41/69/38 40/65/38 38/62/38
f 41/69/38 39/63/38 40/65/38
