# Blender v2.93.2 OBJ File: ''
# www.blender.org
mtllib ship3.mtl
o 000_Buffer_Layer
v -30.000000 0.000000 -0.000006
v -15.000000 11.074378 39.999992
v -20.000000 -0.000000 19.999992
v 0.000000 17.999998 30.000000
v 20.000000 -0.000000 19.999992
v 15.000000 11.074378 39.999992
v 30.000000 0.000000 -0.000006
v 0.000000 0.000000 80.000000
v 0.000000 0.000000 0.000000
v -23.000000 11.074375 49.999992
v 23.000000 11.074375 49.999992
v 10.000000 10.537191 24.999994
v -10.000000 10.537190 24.999994
v 0.000000 10.537190 15.000000
vn 0.8294 0.3744 -0.4147
vn -0.6125 0.7245 -0.3163
vn -0.3851 0.9133 0.1327
vn -0.3855 0.8496 -0.3600
vn -0.8294 0.3744 -0.4147
vn -0.0022 -0.9964 0.0851
vn 0.0022 -0.9964 0.0851
vn 0.0000 -1.0000 -0.0000
vn -0.2256 0.9574 -0.1805
vn -0.4225 0.8865 -0.1887
vn 0.2256 0.9574 0.1805
vn 0.2083 0.9307 0.3006
vn 0.1932 0.9044 0.3805
vn 0.2256 0.9574 -0.1805
vn 0.4225 0.8865 -0.1887
vn -0.1629 -0.9108 0.3793
vn -0.1561 -0.9257 0.3445
vn -0.5069 -0.8239 0.2535
vn 0.1561 -0.9257 0.3445
vn 0.1629 -0.9108 0.3793
vn 0.5069 -0.8239 0.2535
vn 0.7767 -0.6148 0.1369
vn 0.4363 -0.8796 0.1897
vn 0.5805 -0.8063 0.1138
vn -0.2083 0.9307 0.3006
vn -0.2256 0.9574 0.1805
vn -0.1932 0.9044 0.3805
vn -0.7767 -0.6148 0.1369
vn -0.5805 -0.8063 0.1138
vn -0.4363 -0.8796 0.1897
vn 0.0756 -0.9964 0.0392
vn -0.0000 -0.9992 0.0402
vn -0.0756 -0.9964 0.0392
vn 0.3959 0.9183 -0.0076
vn 0.3851 0.9133 0.1327
vn 0.5232 0.8094 -0.2668
vn 0.4734 0.7428 -0.4734
vn 0.4356 0.8241 -0.3622
vn 0.5085 0.7419 -0.4371
vn 0.6125 0.7245 -0.3163
vn -0.3959 0.9183 -0.0076
vn -0.4356 0.8241 -0.3622
vn -0.4353 0.7774 -0.4540
vn -0.4653 0.7830 -0.4127
vn -0.4984 0.7094 -0.4984
vn 0.4984 0.7094 -0.4984
vn 0.0092 0.9699 0.2433
vn 0.1295 0.9813 0.1425
vn 0.3119 0.9361 0.1626
vn -0.3119 0.9361 0.1626
vn -0.1295 0.9813 0.1425
vn -0.0092 0.9699 0.2433
vn 0.5282 0.7172 -0.4546
vn -0.5282 0.7172 -0.4546
usemtl Material.001
s 1
f 1//1 2//1 3//1
f 3//2 2//3 13//4
f 5//5 6//5 7//5
f 5//6 3//7 9//8
f 1//9 10//9 2//10
f 10//11 8//12 2//13
f 11//14 7//14 6//15
f 3//16 10//17 1//18
f 11//19 5//20 7//21
f 11//22 8//23 5//24
f 8//25 11//26 6//27
f 10//28 3//29 8//30
f 5//31 8//32 3//33
f 4//34 6//35 12//36
f 14//37 4//38 12//39
f 6//35 5//40 12//36
f 2//3 4//41 13//4
f 4//42 14//43 13//44
usemtl Material.002
f 14//43 9//45 13//44
f 9//46 14//37 12//39
usemtl Material.003
f 8//47 6//48 4//49
f 4//50 2//51 8//52
f 5//53 9//46 12//39
f 9//45 3//54 13//44
