# Blender v2.93.2 OBJ File: ''
# www.blender.org
mtllib ship2.mtl
o 000_Buffer_Layer
v -30.000000 1.818187 -30.000000
v -10.000000 1.818180 22.000000
v -10.000000 -8.181816 -10.000001
v 0.000000 11.818182 -35.999996
v 10.000000 -8.181816 -10.000001
v 10.000000 1.818180 22.000000
v 30.000000 1.818187 -30.000000
v 0.000000 1.818174 50.000000
v 0.000000 2.818187 -30.000002
v -23.000000 -4.181821 20.000000
v 23.000000 -3.181821 20.000000
vn 0.6128 0.7542 -0.2357
vn -0.9403 0.2920 -0.1749
vn -0.7556 0.6475 0.0989
vn -0.8259 0.5531 -0.1092
vn -0.6128 0.7542 -0.2357
vn 0.1157 0.9932 0.0150
vn 0.3598 0.9282 -0.0950
vn 0.4732 0.8808 0.0156
vn -0.4342 0.8852 0.1670
vn -0.5823 0.8121 0.0381
vn -0.4335 0.8877 0.1548
vn -0.4375 0.8561 0.2750
vn -0.5239 0.7906 0.3169
vn 0.3745 0.9160 0.1440
vn 0.5263 0.8501 0.0157
vn -0.0594 -0.9954 0.0756
vn -0.0639 -0.9941 0.0878
vn -0.4036 -0.9134 -0.0531
vn 0.0835 -0.9903 0.1113
vn 0.0786 -0.9921 0.0980
vn 0.4215 -0.9063 -0.0316
vn 0.1865 -0.9795 0.0759
vn -0.2388 -0.9579 0.1594
vn -0.0894 -0.9933 0.0739
vn 0.3803 0.8893 0.2542
vn 0.3736 0.9180 0.1334
vn 0.4710 0.8306 0.2970
vn -0.1324 -0.9889 0.0680
vn 0.1437 -0.9876 0.0640
vn 0.2917 -0.9449 0.1485
vn 0.0796 -0.9778 0.1937
vn -0.0000 -0.9790 0.2039
vn -0.0796 -0.9778 0.1937
vn -0.4732 0.8808 0.0156
vn -0.3598 0.9282 -0.0950
vn -0.1157 0.9932 0.0150
vn 0.8259 0.5531 -0.1092
vn 0.7556 0.6475 0.0989
vn 0.9403 0.2920 -0.1749
vn 0.7611 -0.3565 -0.5419
vn 0.7254 -0.3818 -0.5727
vn 0.7555 -0.3393 -0.5604
vn -0.7555 -0.3393 -0.5604
vn -0.7254 -0.3818 -0.5727
vn -0.7611 -0.3565 -0.5419
vn -0.0111 -0.9137 -0.4062
vn 0.0111 -0.9137 -0.4062
vn 0.0000 -0.8762 -0.4819
usemtl Material.001
s off
f 1//1 2//1 3//1
f 3//2 2//3 4//4
f 5//5 6//5 7//5
f 8//6 6//7 4//8
f 1//9 10//9 2//10
f 10//11 8//12 2//13
f 11//14 7//14 6//15
f 3//16 10//17 1//18
f 11//19 5//20 7//21
f 11//22 8//23 5//24
f 8//25 11//26 6//27
f 10//28 3//29 8//30
f 5//31 8//32 3//33
f 4//34 2//35 8//36
f 4//37 6//38 5//39
usemtl Material.002
f 5//40 9//41 4//42
f 4//43 9//44 3//45
usemtl Material.003
f 5//46 3//47 9//48
